<?xml version="1.0" encoding="utf-8"?>
<!-- Generator: Adobe Illustrator 23.0.3, SVG Export Plug-In . SVG Version: 6.00 Build 0)  -->
<svg version="1.1" id="Layer_1" xmlns="http://www.w3.org/2000/svg" xmlns:xlink="http://www.w3.org/1999/xlink" x="0px" y="0px"
	 viewBox="0 0 67 74" style="enable-background:new 0 0 67 74;" xml:space="preserve">
<style type="text/css">
	.st0{fill:#FFFFFF;}
</style>
<g>
	<path class="st0" d="M41.2,58.5c-1.5,0.1-5.7,0.5-6.7,2.5c-0.2,0.4-1.7-0.9-2.1-0.7c0.3,0.6,0.6,1.6,1.1,1.7
		c1.3,0.4,2.6,0.5,3.9,0.5c6.2,0.1,10.8-3.1,15.1-7.1c1.2-1.1,2.4-2.2,3.7-3.4c-4.4,8.7-17.6,15.2-30.3,11
		C11.7,58.4,6.2,46.3,8,34.7c0.5,1.3,0.8,2.2,1.4,3.8c0.9-3.3,1.4-6,2.5-8.5c1.1-2.5,2.7-4.8,4.2-7c-1.1,3.4-2.5,6.8-3.2,10.3
		c-1.4,6.8,5.8,14.4,12.2,15.3c0.7,0.1,1.3,0.1,2,0.3c3.7,0.6,4.5,0,4.4,4.6c0,1.2,1.3,2.8,2.4,3.7c1.1,0.9,5.8,0.2,7.2,0.7
		C41.2,58,41.2,58.3,41.2,58.5z M12.8,46.6c1.6,5.3,4.8,8.9,10.7,9.8c-0.3,0.6-0.6,1.1-1.1,1.9c1.3,0.1,2.6,0.7,3.3,0.2
		c1.1-0.7,2.3-1.9,2.6-3c0.4-1.7-0.9-1.8-2.4-1.5c-0.7,0.1-1.5-0.6-2.2-0.9c-1.5-0.7-2.9-1.3-2.9,1.5C16.7,52.9,15.2,49.3,12.8,46.6
		z"/>
	<path class="st0" d="M45.4,20.7c2.7-2.8,2.5-3.8-0.8-5.4c-2.2-1-4.6-1.6-6.5-2.3c7.4-0.7,19.5,6.7,22.2,17.4
		c-1.9-2.2-3.8-4.3-5.6-6.5c-0.4,0.2-0.8,0.3-1.2,0.5c5.4,7.2,6.6,14.6,1.7,23c0.6-2.9,1.1-5.1,1.6-7.3c-2.3,3.3-4,7.2-6.9,9.5
		c-2.9,2.2-7.2,2.7-10.8,4.5c1.8,0,3.5,0.1,5.3,0.1c0,0.2,0.1,0.5,0.1,0.7c-1.8,0.3-3.6,0.8-5.4,0.7c-0.7,0-2-1.5-1.9-2
		c0.2-1,1.1-2.3,2-2.7c1.7-0.7,3.6-0.7,5.3-1.2c6.9-2,10.5-6.8,11.1-13.8c0.5-6.1-2.1-10.6-7.4-13.6C47.2,21.9,46.4,21.4,45.4,20.7z
		"/>
	<path class="st0" d="M39.5,60.1c0-1,1.3-2,1.1-2.6c1.6-0.7,2.9-1.4,4.7-2.5c1.8-1,3.5-2.4,5.3-3.4C48.2,55.4,43.8,58.6,39.5,60.1z"
		/>
</g>
<g>
	<path class="st0" d="M3.5,19.9l1.5-2.1c0.3-0.4,0.5-0.7,0.7-0.9c0.2-0.2,0.4-0.3,0.6-0.4c0.2-0.1,0.5-0.1,0.7-0.1
		c0.3,0,0.5,0.1,0.7,0.3c0.2,0.2,0.4,0.4,0.5,0.7c0.1,0.3,0.1,0.6,0.1,0.9c0.3-0.3,0.7-0.4,1-0.4s0.7,0.1,1,0.3
		c0.2,0.2,0.4,0.4,0.6,0.7c0.1,0.3,0.2,0.5,0.2,0.8c0,0.3-0.1,0.6-0.2,0.9c-0.1,0.2-0.4,0.6-0.9,1.3l-1.3,1.8L3.5,19.9z M5.1,19.4
		l1.2,0.9l0.5-0.7c0.3-0.4,0.5-0.7,0.5-0.8c0.1-0.2,0.1-0.4,0.1-0.6c0-0.2-0.1-0.3-0.3-0.4c-0.2-0.1-0.3-0.2-0.5-0.1
		c-0.2,0-0.3,0.1-0.5,0.3c-0.1,0.1-0.3,0.4-0.7,0.9L5.1,19.4z M7.2,20.9l1.4,1l0.7-1c0.3-0.4,0.4-0.6,0.5-0.8
		c0.1-0.2,0.1-0.4,0.1-0.5s-0.2-0.3-0.3-0.5C9.3,19,9.2,19,9,18.9c-0.2,0-0.3,0.1-0.5,0.2c-0.2,0.1-0.4,0.4-0.7,0.9L7.2,20.9z"/>
	<path class="st0" d="M8.9,12.4l-0.7-0.8L9,10.9l0.7,0.8L8.9,12.4z M8.3,13.5l1-0.9l2.3,2.6c0.4,0.4,0.6,0.7,0.8,0.8
		c0.2,0.2,0.5,0.2,0.7,0.2c0.3,0,0.5-0.2,0.8-0.4c0.3-0.2,0.4-0.5,0.5-0.7c0-0.2,0-0.5-0.1-0.6c-0.1-0.2-0.3-0.5-0.7-0.9l-2.4-2.6
		l1-0.9l2.3,2.5c0.5,0.6,0.9,1,1,1.3c0.2,0.3,0.2,0.6,0.3,0.9c0,0.3-0.1,0.6-0.2,0.9c-0.1,0.3-0.4,0.6-0.8,1
		c-0.5,0.4-0.9,0.7-1.2,0.8c-0.3,0.1-0.6,0.1-0.9,0.1c-0.3,0-0.5-0.1-0.7-0.3c-0.3-0.2-0.7-0.6-1.2-1.1L8.3,13.5z M10.3,11.2
		l-0.7-0.8l0.8-0.7l0.7,0.8L10.3,11.2z"/>
	<path class="st0" d="M17.7,13.9l-3.2-5.5l1.1-0.7l2.7,4.6l2.8-1.6l0.5,0.9L17.7,13.9z"/>
	<path class="st0" d="M21.4,8.2c-0.2-0.6-0.3-1.2-0.2-1.7c0-0.4,0.1-0.7,0.3-1c0.2-0.3,0.4-0.6,0.6-0.8c0.3-0.3,0.7-0.5,1.2-0.7
		c0.9-0.3,1.7-0.2,2.4,0.2c0.7,0.4,1.2,1.1,1.6,2.1c0.3,1,0.3,1.9-0.1,2.6c-0.4,0.7-1,1.2-1.9,1.5c-0.9,0.3-1.7,0.2-2.4-0.1
		C22.2,9.9,21.7,9.2,21.4,8.2z M22.6,7.8c0.2,0.7,0.5,1.2,1,1.4s0.9,0.3,1.4,0.2s0.8-0.5,1-0.9c0.2-0.5,0.2-1,0-1.8
		c-0.2-0.7-0.5-1.2-1-1.4S24.2,5,23.7,5.1s-0.9,0.5-1.1,0.9S22.4,7.1,22.6,7.8z"/>
	<path class="st0" d="M30.3,9.1l-1.8-6.4l1.3,0l1.1,4.4l1-4.5l1.5-0.1L34.8,7l0.8-4.5l1.3,0l-1.3,6.5L34.2,9l-1.5-4.8l-1.1,4.9
		L30.3,9.1z"/>
	<path class="st0" d="M42.6,3.5l2.3,0.7c0.5,0.2,0.9,0.3,1.1,0.5c0.3,0.2,0.6,0.5,0.7,0.9C46.9,6,47,6.4,47,6.8
		c0,0.4-0.1,0.9-0.3,1.5c-0.2,0.5-0.4,0.9-0.6,1.2c-0.3,0.4-0.6,0.7-1,0.9c-0.3,0.1-0.6,0.2-1,0.2c-0.3,0-0.7-0.1-1.1-0.2l-2.3-0.8
		L42.6,3.5z M43.5,5L42.2,9l0.9,0.3c0.3,0.1,0.6,0.2,0.8,0.2c0.2,0,0.4,0,0.6-0.1c0.2-0.1,0.3-0.2,0.5-0.5c0.2-0.2,0.3-0.6,0.5-1.1
		c0.2-0.5,0.2-0.8,0.2-1.1S45.7,6.2,45.6,6s-0.3-0.4-0.5-0.5c-0.2-0.1-0.5-0.2-1-0.4L43.5,5z"/>
	<path class="st0" d="M50.2,6.4L51.3,7l-1.8,3C49.2,10.5,49,10.8,49,11c-0.1,0.3-0.1,0.5,0,0.7s0.3,0.5,0.6,0.7
		c0.3,0.2,0.6,0.3,0.8,0.2c0.2,0,0.4-0.1,0.6-0.3c0.1-0.2,0.4-0.5,0.6-0.9l1.9-3L54.6,9l-1.8,2.9c-0.4,0.7-0.7,1.1-0.9,1.3
		s-0.5,0.4-0.8,0.5c-0.3,0.1-0.6,0.1-0.9,0.1c-0.3-0.1-0.7-0.2-1.2-0.5c-0.5-0.3-0.9-0.6-1.1-0.9c-0.2-0.3-0.3-0.6-0.4-0.9
		s0-0.6,0.1-0.8c0.1-0.4,0.4-0.8,0.7-1.5L50.2,6.4z"/>
	<path class="st0" d="M56.9,10.8l0.9,0.9l-2.4,2.5c-0.4,0.4-0.6,0.7-0.7,0.8c-0.1,0.2-0.2,0.5-0.2,0.7c0,0.3,0.2,0.5,0.4,0.8
		c0.3,0.3,0.5,0.4,0.8,0.4s0.4,0,0.6-0.2c0.2-0.1,0.4-0.4,0.8-0.7l2.5-2.5l0.9,0.9l-2.4,2.4c-0.5,0.6-0.9,0.9-1.2,1.1
		s-0.6,0.3-0.8,0.3c-0.3,0-0.6,0-0.9-0.2s-0.7-0.4-1-0.7c-0.4-0.4-0.7-0.8-0.9-1.1s-0.2-0.6-0.2-0.9s0.1-0.5,0.2-0.8
		c0.2-0.3,0.5-0.7,1.1-1.3L56.9,10.8z"/>
	<path class="st0" d="M58.6,18.8l0.8,1c-0.3,0.3-0.5,0.6-0.5,0.9c0,0.3,0,0.6,0.3,1c0.2,0.4,0.5,0.6,0.7,0.6s0.5,0.1,0.7-0.1
		c0.1-0.1,0.2-0.2,0.3-0.3c0-0.1,0-0.3,0-0.5c0-0.2-0.2-0.5-0.3-1c-0.2-0.7-0.3-1.2-0.3-1.6c0.1-0.5,0.3-0.9,0.8-1.2
		c0.3-0.2,0.6-0.3,0.9-0.3c0.3,0,0.7,0.1,1,0.3c0.3,0.2,0.6,0.5,0.9,0.9c0.4,0.7,0.6,1.3,0.6,1.8c-0.1,0.5-0.4,1-0.8,1.3l-0.8-1.1
		c0.2-0.2,0.4-0.5,0.4-0.7c0-0.2-0.1-0.5-0.3-0.8c-0.2-0.3-0.4-0.5-0.7-0.6c-0.2-0.1-0.3,0-0.4,0c-0.1,0.1-0.2,0.2-0.2,0.4
		c0,0.2,0.1,0.6,0.3,1.2s0.3,1.1,0.4,1.4c0,0.3,0,0.7-0.2,1s-0.4,0.6-0.7,0.8c-0.3,0.2-0.7,0.3-1,0.3s-0.7-0.1-1.1-0.3
		c-0.3-0.2-0.7-0.6-1-1c-0.4-0.7-0.6-1.3-0.6-1.9C57.7,19.8,58,19.2,58.6,18.8z"/>
</g>
<g>
	<path class="st0" d="M4.1,50.8l0.7-0.3l0.9,2.1l-2.2,0.9c-0.4-0.2-0.8-0.4-1.1-0.7c-0.3-0.3-0.5-0.6-0.7-0.9
		c-0.2-0.5-0.3-0.9-0.2-1.4c0.1-0.5,0.3-0.9,0.7-1.3c0.4-0.4,0.9-0.8,1.5-1c0.6-0.3,1.3-0.4,1.8-0.4c0.6,0,1,0.2,1.4,0.4
		c0.4,0.3,0.7,0.6,0.9,1.1c0.2,0.4,0.2,0.7,0.2,1c0,0.3-0.1,0.6-0.3,0.9s-0.4,0.5-0.8,0.8l-0.4-0.5C6.8,51.2,7,51,7.1,50.8
		c0.1-0.2,0.2-0.4,0.2-0.6c0-0.2,0-0.5-0.1-0.7c-0.1-0.4-0.4-0.6-0.6-0.8s-0.6-0.3-1.1-0.3c-0.4,0-0.9,0.1-1.4,0.3
		c-0.8,0.3-1.3,0.8-1.6,1.3s-0.3,1,0,1.5c0.1,0.3,0.3,0.5,0.5,0.7c0.2,0.2,0.5,0.4,0.7,0.5l1.1-0.5L4.1,50.8z"/>
	<path class="st0" d="M4.3,56.6l5.3-3.7l0.4,0.6l-4.7,3.2l1.5,2.1l-0.6,0.4L4.3,56.6z"/>
	<path class="st0" d="M7.7,61.2l6-3.2l0.5,0.5l-3,6.1l-0.6-0.6l0.9-1.8L10,60.7l-1.8,1L7.7,61.2z M10.6,60.3l1.3,1.3l0.9-1.7
		c0.3-0.5,0.5-0.9,0.7-1.2c-0.3,0.2-0.7,0.5-1.1,0.7L10.6,60.3z"/>
	<path class="st0" d="M14.3,64.5l0.6,0.3c-0.2,0.3-0.2,0.6-0.3,0.8s0.1,0.5,0.2,0.7c0.1,0.2,0.3,0.4,0.6,0.6c0.3,0.2,0.7,0.3,1,0.3
		c0.3,0,0.5-0.2,0.7-0.5c0.1-0.2,0.2-0.3,0.2-0.5s0-0.3-0.1-0.5c-0.1-0.2-0.3-0.5-0.7-0.9c-0.3-0.4-0.6-0.7-0.6-1s-0.1-0.5-0.1-0.7
		c0-0.3,0.1-0.5,0.3-0.8c0.3-0.4,0.7-0.7,1.1-0.8c0.5-0.1,0.9,0,1.4,0.3c0.3,0.2,0.6,0.5,0.7,0.8c0.2,0.3,0.2,0.6,0.2,0.9
		c0,0.3-0.1,0.7-0.3,1l-0.6-0.3c0.2-0.4,0.3-0.7,0.2-1c-0.1-0.3-0.3-0.5-0.6-0.7c-0.3-0.2-0.6-0.3-0.9-0.3c-0.3,0-0.5,0.2-0.6,0.4
		c-0.1,0.2-0.2,0.4-0.1,0.6c0,0.2,0.3,0.5,0.6,0.9c0.4,0.4,0.6,0.7,0.7,0.9C18,65.4,18,65.7,18,66c0,0.3-0.1,0.6-0.3,0.9
		c-0.2,0.3-0.5,0.5-0.8,0.7c-0.3,0.2-0.6,0.2-1,0.2s-0.7-0.2-1-0.4c-0.5-0.4-0.9-0.8-1-1.3C13.9,65.6,14,65,14.3,64.5z"/>
	<path class="st0" d="M19.6,70l2.3-6l1.9,0.7c0.4,0.2,0.7,0.3,0.9,0.5c0.2,0.2,0.4,0.5,0.5,0.8c0.1,0.3,0,0.7-0.1,1.1
		c-0.2,0.5-0.5,0.9-0.9,1.2s-1,0.2-1.6,0l-1.3-0.5l-0.9,2.4L19.6,70z M21.5,67.1l1.3,0.5c0.4,0.2,0.7,0.2,1,0.1
		c0.3-0.1,0.5-0.3,0.6-0.7c0.1-0.2,0.1-0.5,0.1-0.7c0-0.2-0.1-0.4-0.2-0.5s-0.3-0.2-0.7-0.4l-1.3-0.5L21.5,67.1z"/>
	<path class="st0" d="M30.9,66.4l0.7,0.1L31,70.2c-0.1,0.6-0.2,1.1-0.4,1.5s-0.4,0.7-0.8,0.8c-0.4,0.2-0.8,0.2-1.3,0.2
		c-0.7-0.1-1.2-0.4-1.4-0.9s-0.3-1.2-0.2-2.3l0.6-3.7l0.7,0.1l-0.6,3.7c-0.1,0.6-0.1,1-0.1,1.3c0,0.3,0.2,0.5,0.3,0.7
		c0.2,0.2,0.4,0.3,0.7,0.3c0.5,0.1,0.9,0,1.1-0.2c0.3-0.2,0.5-0.8,0.6-1.6L30.9,66.4z"/>
	<path class="st0" d="M33.8,71l0.7-0.1c0.1,0.4,0.1,0.6,0.3,0.8s0.3,0.3,0.6,0.4c0.2,0.1,0.5,0.2,0.8,0.1c0.4,0,0.7-0.1,1-0.4
		c0.2-0.2,0.3-0.5,0.3-0.8c0-0.2-0.1-0.4-0.2-0.5c-0.1-0.1-0.2-0.2-0.4-0.3c-0.2-0.1-0.5-0.2-1.1-0.3c-0.5-0.1-0.9-0.2-1.1-0.4
		c-0.2-0.1-0.4-0.3-0.5-0.5c-0.1-0.2-0.2-0.5-0.2-0.8c0-0.5,0.1-1,0.4-1.3s0.8-0.5,1.3-0.6c0.4,0,0.7,0,1,0.2
		c0.3,0.1,0.5,0.3,0.7,0.6c0.2,0.3,0.3,0.6,0.3,1L37,68.3c-0.1-0.4-0.2-0.7-0.4-0.9c-0.2-0.2-0.5-0.3-0.9-0.3
		c-0.4,0-0.7,0.1-0.9,0.3c-0.2,0.2-0.3,0.4-0.3,0.7c0,0.3,0.1,0.5,0.3,0.6s0.5,0.3,1.1,0.4c0.5,0.1,0.9,0.2,1.1,0.3
		c0.3,0.1,0.6,0.3,0.8,0.6c0.2,0.3,0.3,0.6,0.3,0.9c0,0.4,0,0.7-0.2,1c-0.2,0.3-0.4,0.6-0.7,0.7c-0.3,0.2-0.6,0.3-1.1,0.3
		c-0.7,0-1.2-0.1-1.6-0.5C34,72.2,33.8,71.7,33.8,71z"/>
	<path class="st0" d="M42.5,72L41,66.5l-1.7,0.4l-0.2-0.7l4.1-1.1l0.2,0.7l-1.7,0.4l1.4,5.5L42.5,72z"/>
	<path class="st0" d="M47.6,70.3l-2.8-5.8l3.4-1.7l0.3,0.7l-2.8,1.4l0.9,1.8l2.6-1.3l0.3,0.7l-2.6,1.3l1,2l2.9-1.4l0.3,0.7
		L47.6,70.3z"/>
	<path class="st0" d="M53.9,66.9l-4-5.1l1.8-1.4c0.4-0.3,0.7-0.5,1-0.5c0.3,0,0.5,0,0.8,0.1s0.5,0.3,0.8,0.6
		c0.3,0.4,0.4,0.8,0.4,1.2c0,0.4-0.2,0.8-0.5,1.1c0.2,0,0.4,0,0.6,0c0.3,0.1,0.6,0.2,0.9,0.3l1.8,0.8l-0.7,0.5l-1.4-0.6
		c-0.5-0.2-0.9-0.4-1.1-0.5c-0.2-0.1-0.4-0.1-0.5,0s-0.3,0.1-0.5,0.3l-0.6,0.5l1.8,2.3L53.9,66.9z M52.2,63.6l1.2-0.9
		c0.3-0.2,0.4-0.4,0.5-0.6s0.1-0.3,0.1-0.5s-0.1-0.4-0.2-0.6c-0.2-0.3-0.4-0.4-0.7-0.4s-0.5,0.1-0.8,0.3l-1.3,1L52.2,63.6z"/>
	<path class="st0" d="M59.3,62.1l-4.7-4.4l0.5-0.5l4.7,4.4L59.3,62.1z"/>
	<path class="st0" d="M61.7,59.5l-5.3-3.7l2.2-3.1l0.6,0.4l-1.8,2.6l1.6,1.1l1.7-2.4l0.6,0.4l-1.7,2.4l1.8,1.3l1.8-2.7l0.6,0.4
		L61.7,59.5z"/>
	<path class="st0" d="M66,52.2l-5.2-2.3l-0.7,1.6l-0.7-0.3l1.7-3.8l0.7,0.3l-0.7,1.6l5.2,2.3L66,52.2z"/>
</g>
</svg>
